<?xml version="1.0" encoding="UTF-8"?>
<svg width="456px" height="210px" viewBox="0 0 456 210" version="1.1" xmlns="http://www.w3.org/2000/svg" xmlns:xlink="http://www.w3.org/1999/xlink">
    <title>Slice 1</title>
    <defs>
        <filter id="filter-1">
            <feColorMatrix in="SourceGraphic" type="matrix" values="0 0 0 0 1.000000 0 0 0 0 1.000000 0 0 0 0 1.000000 0 0 0 1.000000 0"></feColorMatrix>
        </filter>
        <linearGradient x1="-0.0272727273%" y1="50.0448859%" x2="99.8090909%" y2="50.0448859%" id="linearGradient-2">
            <stop stop-color="#0393AA" offset="12.72%"></stop>
            <stop stop-color="#11768C" offset="100%"></stop>
        </linearGradient>
        <linearGradient x1="-0.164433603%" y1="50.0026182%" x2="200.023133%" y2="50.0026182%" id="linearGradient-3">
            <stop stop-color="#51AC3D" offset="0%"></stop>
            <stop stop-color="#4DAB42" offset="16.43%"></stop>
            <stop stop-color="#42A752" offset="37.06%"></stop>
            <stop stop-color="#30A16C" offset="59.94%"></stop>
            <stop stop-color="#16998F" offset="84.27%"></stop>
            <stop stop-color="#0393AA" offset="100%"></stop>
        </linearGradient>
        <linearGradient x1="0.0731182796%" y1="49.960355%" x2="98.6702835%" y2="49.960355%" id="linearGradient-4">
            <stop stop-color="#00AEC9" offset="30.66%"></stop>
            <stop stop-color="#0393AA" offset="91.25%"></stop>
        </linearGradient>
    </defs>
    <g id="Page-1" stroke="none" stroke-width="1" fill="none" fill-rule="evenodd">
        <g id="CM_Logo_Nav">
            <g filter="url(#filter-1)" id="Group">
                <g transform="translate(0.000000, 145.000000)">
                    <path d="M0.7,44.6 C0.7,33.8 9.5,25.1 20.5,25.1 C23.7,25.1 26.9,25.9 30,27.3 L29.1,31.2 C26.5,29.7 23.6,28.9 20.5,28.9 C11.6,28.9 5,35.9 5,44.6 C5,53.4 11.7,60.4 20.5,60.4 C23.9,60.4 27,59.4 29.6,57.8 L30.4,61.8 C27.5,63.4 24,64.2 20.6,64.2 C9.6,64.2 0.7,55.5 0.7,44.6 Z" id="Path" fill="#2E2926" fill-rule="nonzero"></path>
                    <path d="M62.8,63.4 L62.5,59.4 C60,62.3 56.1,64.2 51.8,64.2 C43.9,64.2 37.6,58.2 37.6,50.4 C37.6,42.6 43.9,36.6 51.8,36.6 C56.2,36.6 59.8,38.6 62.3,41.4 L62.3,38.5 C62.3,31.8 59.4,28.9 52.6,28.9 C49.5,28.9 46.6,29.5 43.4,30.6 L44.2,26.7 C47.2,25.7 49.9,25.2 52.8,25.2 C61.8,25.2 66.4,29.4 66.4,38.1 L66.4,55.8 L66.6,63.4 L62.8,63.4 L62.8,63.4 Z M62.6,50.4 C62.6,44.7 58,40.1 52.1,40.1 C46.3,40.1 41.6,44.7 41.6,50.4 C41.6,56.1 46.3,60.7 52.1,60.7 C58,60.7 62.6,56.1 62.6,50.4 Z" id="Shape" fill="#2E2926" fill-rule="nonzero"></path>
                    <path d="M97.4,25.2 L97.4,29.4 C88.4,29.4 83.4,34.4 83.4,43.8 L83.4,63.4 L79.3,63.4 L79.3,26.3 L83.2,25.3 L83.2,33.1 C85.8,28 90.6,25.2 97.4,25.2 Z" id="Path" fill="#2E2926" fill-rule="nonzero"></path>
                    <path d="M144.5,44.6 C144.5,55.7 135.7,64.2 124.6,64.2 C113.5,64.2 104.9,55.9 104.9,44.4 L104.9,1.3 L109,0.3 L109,33.7 C112.2,28.4 117.9,25.1 124.8,25.1 C135.8,25.1 144.5,33.6 144.5,44.6 Z M140.3,44.6 C140.3,35.8 133.5,28.9 124.8,28.9 C116,28.9 109.1,35.8 109.1,44.7 C109.1,53.5 115.8,60.4 124.6,60.4 C133.4,60.4 140.3,53.6 140.3,44.6 Z" id="Shape" fill="#2E2926" fill-rule="nonzero"></path>
                    <path d="M151.6,44.6 C151.6,33.6 160.3,25.1 171.4,25.1 C182.5,25.1 191.2,33.7 191.2,44.6 C191.2,55.6 182.6,64.2 171.4,64.2 C160.4,64.2 151.6,55.6 151.6,44.6 Z M187.1,44.6 C187.1,35.7 180.3,28.9 171.5,28.9 C162.8,28.9 156,35.7 156,44.6 C156,53.6 162.8,60.4 171.5,60.4 C180.2,60.4 187.1,53.6 187.1,44.6 Z" id="Shape" fill="#2E2926" fill-rule="nonzero"></path>
                    <path d="M233.5,41.2 L233.5,63.5 L229.4,63.5 L229.4,41.6 C229.4,33.2 224.6,29 218.2,29 C210.9,29 205.8,34.3 205.8,42.2 L205.8,63.5 L201.7,63.5 L201.7,26.4 L205.6,25.4 L205.6,32.1 C208.4,27.7 213,25.1 218.7,25.1 C227.3,25.1 233.5,30.7 233.5,41.2 Z" id="Path" fill="#2E2926" fill-rule="nonzero"></path>
                    <path d="M302.8,39.3 L302.8,63.4 L294.1,63.4 L294.1,40.3 C294.1,34.6 291.1,31.6 286.8,31.6 C282,31.6 278.7,35.2 278.7,41 L278.7,63.5 L269.9,63.5 L269.9,40.4 C269.9,34.7 266.9,31.7 262.6,31.7 C257.9,31.7 254.5,35.3 254.5,41.1 L254.5,63.6 L245.8,63.6 L245.8,25.6 L254.2,24.3 L254.2,29.3 C256.8,25.9 260.6,24 265.1,24 C270,24 274,26.2 276.3,30.4 C279.1,26.3 283.6,24 288.9,24 C297.3,23.9 302.8,29.7 302.8,39.3 Z" id="Path" fill="#2E2926" fill-rule="nonzero"></path>
                    <path d="M313,10.6 C313,7.5 315.5,5.1 318.7,5.1 C321.9,5.1 324.4,7.5 324.4,10.6 C324.4,13.7 321.9,16.1 318.7,16.1 C315.5,16.1 313,13.7 313,10.6 Z M314.4,25.5 L323.1,24.1 L323.1,63.4 L314.4,63.4 L314.4,25.5 Z" id="Shape" fill="#2E2926" fill-rule="nonzero"></path>
                    <path d="M370.4,40 L370.4,63.5 L361.7,63.5 L361.7,41 C361.7,34.9 358.2,31.6 353.2,31.6 C347.8,31.6 343.9,35.5 343.9,41.6 L343.9,63.5 L335.2,63.5 L335.2,25.5 L343.6,24.2 L343.6,29.2 C346.5,25.8 350.7,23.9 355.6,23.9 C364.6,23.9 370.4,29.9 370.4,40 Z" id="Path" fill="#2E2926" fill-rule="nonzero"></path>
                    <path d="M420,0.8 L420,63.4 L411.7,63.4 L411.7,58 C408.5,61.9 403.8,64.3 398.3,64.3 C387.6,64.3 378.8,55.4 378.8,44 C378.8,32.7 387.6,23.8 398.3,23.8 C403.6,23.8 408,25.9 411.2,29.4 L411.2,2 L420,0.8 Z M411.9,44.1 C411.9,37.1 406.5,31.6 399.6,31.6 C392.7,31.6 387.3,37.1 387.3,44.1 C387.3,51.2 392.7,56.7 399.6,56.7 C406.5,56.7 411.9,51.2 411.9,44.1 Z" id="Shape" fill="#2E2926" fill-rule="nonzero"></path>
                    <path d="M429.3,60.7 L430.5,53.6 C434.3,56 437.8,57.4 441.3,57.4 C444.8,57.4 447,55.6 447,52.6 C447,50.4 445.8,48.8 441,47.2 L439.4,46.7 C433.4,44.7 430.1,40.7 430.1,35.1 C430.1,28.6 435.2,23.8 442.8,23.8 C446.3,23.8 450.2,24.9 453.8,26.7 L452.5,33.8 C449,31.8 445.4,30.8 443,30.8 C439.8,30.8 438.2,32.6 438.2,34.9 C438.2,36.9 439.2,38.4 443.4,39.8 L445.1,40.4 C451.8,42.6 455.3,46.6 455.3,52.5 C455.3,59.6 449.9,64.5 441.8,64.5 C437.5,64.5 433,62.9 429.3,60.7 Z" id="Path" fill="#2E2926" fill-rule="nonzero"></path>
                </g>
            </g>
            <path d="M269.5,42.2 L269.5,118.8 L287.3,118.8 L287.3,42.2 C287.3,29 298.1,18.2 311.3,18.2 L311.3,18.2 C324.5,18.2 335.3,29 335.3,42.2 L335.3,118.8 L353.1,118.8 L353.1,42.2 C353.1,19.2 334.3,0.5 311.4,0.5 L311.4,0.5 C298.1,0.5 286.2,6.8 278.6,16.6" id="Path" fill="url(#linearGradient-2)"></path>
            <path d="M162.4,0.5 L162.4,0.5 C167.6,0.5 172.6,1.2 177.4,2.4 L168,18.7 C166.2,18.4 164.3,18.3 162.4,18.3 L162.4,18.3 C139.6,18.3 121,36.9 121,59.7 L121,59.7 C121,82.5 139.6,101.1 162.4,101.1 L168.3,101.1 L178.6,118.9 L162.5,118.9 C129.9,118.9 103.299719,92.3 103.299719,59.7 L103.299719,59.7 C103.2,27.2 129.8,0.5 162.4,0.5 Z" id="Path" fill="url(#linearGradient-3)"></path>
            <path d="M221.5,59.7 L221.5,118.9 L203.7,118.9 L203.7,59.7 C203.7,45.2 196.2,32.4 184.8,25 L193.7,9.6 C199.4,13.2 204.4,17.7 208.5,22.9 L208.5,22.9 C215.5,9.6 229.5,0.6 245.4,0.6 L245.4,0.6 C268.4,0.6 287.1,19.4 287.1,42.3 L287.1,118.9 L269.3,118.9 L269.3,42.2 C269.3,29 258.5,18.2 245.3,18.2 L245.3,18.2 C232.1,18.2 221.3,29 221.3,42.2 L221.3,118.8 L203.5,118.8 L221.3,118.8" id="Path" fill="url(#linearGradient-4)"></path>
        </g>
    </g>
</svg>