<?xml version="1.0" encoding="utf-8"?>
<!-- Generator: $$$/GeneralStr/196=Adobe Illustrator 27.6.0, SVG Export Plug-In . SVG Version: 6.00 Build 0)  -->
<svg version="1.1" xmlns="http://www.w3.org/2000/svg" xmlns:xlink="http://www.w3.org/1999/xlink" x="0px" y="0px"
	 viewBox="0 0 600 300" style="enable-background:new 0 0 600 300;" xml:space="preserve">
<style type="text/css">
	.st0{fill:#2E2926;}
	.st1{fill-rule:evenodd;clip-rule:evenodd;fill:url(#SVGID_1_);}
	.st2{fill-rule:evenodd;clip-rule:evenodd;fill:url(#SVGID_00000119823414016526912720000004394085990771654312_);}
	.st3{fill-rule:evenodd;clip-rule:evenodd;fill:url(#SVGID_00000098217773750738663820000001461107786097128845_);}
</style>
<g id="Ebene_1">
	<g>
		<g>
			<path class="st0" d="M72.7,234.6c0-10.8,8.8-19.5,19.8-19.5c3.2,0,6.4,0.8,9.5,2.2l-0.9,3.9c-2.6-1.5-5.5-2.3-8.6-2.3
				c-8.9,0-15.5,7-15.5,15.7c0,8.8,6.7,15.8,15.5,15.8c3.4,0,6.5-1,9.1-2.6l0.8,4c-2.9,1.6-6.4,2.4-9.8,2.4
				C81.6,254.2,72.7,245.5,72.7,234.6z"/>
			<path class="st0" d="M134.8,253.4l-0.3-4c-2.5,2.9-6.4,4.8-10.7,4.8c-7.9,0-14.2-6-14.2-13.8c0-7.8,6.3-13.8,14.2-13.8
				c4.4,0,8,2,10.5,4.8v-2.9c0-6.7-2.9-9.6-9.7-9.6c-3.1,0-6,0.6-9.2,1.7l0.8-3.9c3-1,5.7-1.5,8.6-1.5c9,0,13.6,4.2,13.6,12.9v17.7
				l0.2,7.6H134.8z M134.6,240.4c0-5.7-4.6-10.3-10.5-10.3c-5.8,0-10.5,4.6-10.5,10.3c0,5.7,4.7,10.3,10.5,10.3
				C130,250.7,134.6,246.1,134.6,240.4z"/>
			<path class="st0" d="M169.4,215.2v4.2c-9,0-14,5-14,14.4v19.6h-4.1v-37.1l3.9-1v7.8C157.8,218,162.6,215.2,169.4,215.2z"/>
			<path class="st0" d="M216.5,234.6c0,11.1-8.8,19.6-19.9,19.6c-11.1,0-19.7-8.3-19.7-19.8v-43.1l4.1-1v33.4
				c3.2-5.3,8.9-8.6,15.8-8.6C207.8,215.1,216.5,223.6,216.5,234.6z M212.3,234.6c0-8.8-6.8-15.7-15.5-15.7
				c-8.8,0-15.7,6.9-15.7,15.8c0,8.8,6.7,15.7,15.5,15.7C205.4,250.4,212.3,243.6,212.3,234.6z"/>
			<path class="st0" d="M223.6,234.6c0-11,8.7-19.5,19.8-19.5c11.1,0,19.8,8.6,19.8,19.5c0,11-8.6,19.6-19.8,19.6
				C232.4,254.2,223.6,245.6,223.6,234.6z M259.1,234.6c0-8.9-6.8-15.7-15.6-15.7c-8.7,0-15.5,6.8-15.5,15.7c0,9,6.8,15.8,15.5,15.8
				C252.2,250.4,259.1,243.6,259.1,234.6z"/>
			<path class="st0" d="M305.5,231.2v22.3h-4.1v-21.9c0-8.4-4.8-12.6-11.2-12.6c-7.3,0-12.4,5.3-12.4,13.2v21.3h-4.1v-37.1l3.9-1
				v6.7c2.8-4.4,7.4-7,13.1-7C299.3,215.1,305.5,220.7,305.5,231.2z"/>
			<path class="st0" d="M374.8,229.3v24.1h-8.7v-23.1c0-5.7-3-8.7-7.3-8.7c-4.8,0-8.1,3.6-8.1,9.4v22.5h-8.8v-23.1
				c0-5.7-3-8.7-7.3-8.7c-4.7,0-8.1,3.6-8.1,9.4v22.5h-8.7v-38l8.4-1.3v5c2.6-3.4,6.4-5.3,10.9-5.3c4.9,0,8.9,2.2,11.2,6.4
				c2.8-4.1,7.3-6.4,12.6-6.4C369.3,213.9,374.8,219.7,374.8,229.3z"/>
			<path class="st0" d="M385,200.6c0-3.1,2.5-5.5,5.7-5.5c3.2,0,5.7,2.4,5.7,5.5c0,3.1-2.5,5.5-5.7,5.5
				C387.5,206.1,385,203.7,385,200.6z M386.4,215.5l8.7-1.4v39.3h-8.7V215.5z"/>
			<path class="st0" d="M442.4,230v23.5h-8.7V231c0-6.1-3.5-9.4-8.5-9.4c-5.4,0-9.3,3.9-9.3,10v21.9h-8.7v-38l8.4-1.3v5
				c2.9-3.4,7.1-5.3,12-5.3C436.6,213.9,442.4,219.9,442.4,230z"/>
			<path class="st0" d="M492,190.8v62.6h-8.3v-5.4c-3.2,3.9-7.9,6.3-13.4,6.3c-10.7,0-19.5-8.9-19.5-20.3c0-11.3,8.8-20.2,19.5-20.2
				c5.3,0,9.7,2.1,12.9,5.6v-27.4L492,190.8z M483.9,234.1c0-7-5.4-12.5-12.3-12.5c-6.9,0-12.3,5.5-12.3,12.5
				c0,7.1,5.4,12.6,12.3,12.6C478.5,246.7,483.9,241.2,483.9,234.1z"/>
			<path class="st0" d="M501.3,250.7l1.2-7.1c3.8,2.4,7.3,3.8,10.8,3.8c3.5,0,5.7-1.8,5.7-4.8c0-2.2-1.2-3.8-6-5.4l-1.6-0.5
				c-6-2-9.3-6-9.3-11.6c0-6.5,5.1-11.3,12.7-11.3c3.5,0,7.4,1.1,11,2.9l-1.3,7.1c-3.5-2-7.1-3-9.5-3c-3.2,0-4.8,1.8-4.8,4.1
				c0,2,1,3.5,5.2,4.9l1.7,0.6c6.7,2.2,10.2,6.2,10.2,12.1c0,7.1-5.4,12-13.5,12C509.5,254.5,505,252.9,501.3,250.7z"/>
		</g>
		<linearGradient id="SVGID_1_" gradientUnits="userSpaceOnUse" x1="341.4772" y1="104.7031" x2="424.9404" y2="104.7031">
			<stop  offset="0.1272" style="stop-color:#0393AA"/>
			<stop  offset="1" style="stop-color:#11768C"/>
		</linearGradient>
		<path class="st1" d="M341.5,87.2v76.6h17.8V87.2c0-13.2,10.8-24,24-24l0,0c13.2,0,24,10.8,24,24v76.6h17.8V87.2
			c0-23-18.8-41.7-41.7-41.7h0c-13.3,0-25.2,6.3-32.8,16.1"/>
		
			<linearGradient id="SVGID_00000083799151722464013950000006253951105039243960_" gradientUnits="userSpaceOnUse" x1="175.1759" y1="104.7031" x2="325.9177" y2="104.7031">
			<stop  offset="0" style="stop-color:#51AC3D"/>
			<stop  offset="0.1643" style="stop-color:#4DAB42"/>
			<stop  offset="0.3706" style="stop-color:#42A752"/>
			<stop  offset="0.5994" style="stop-color:#30A16C"/>
			<stop  offset="0.8427" style="stop-color:#16998F"/>
			<stop  offset="1" style="stop-color:#0393AA"/>
		</linearGradient>
		<path style="fill-rule:evenodd;clip-rule:evenodd;fill:url(#SVGID_00000083799151722464013950000006253951105039243960_);" d="
			M234.4,45.5L234.4,45.5c5.2,0,10.2,0.7,15,1.9L240,63.7c-1.8-0.3-3.7-0.4-5.6-0.4h0c-22.8,0-41.4,18.6-41.4,41.4v0
			c0,22.8,18.6,41.4,41.4,41.4h5.9l10.3,17.8h-16.1c-32.6,0-59.2-26.6-59.2-59.2v0C175.2,72.2,201.8,45.5,234.4,45.5z"/>
		
			<linearGradient id="SVGID_00000129906366647960383370000001746171873963840411_" gradientUnits="userSpaceOnUse" x1="256.8748" y1="104.7031" x2="357.7397" y2="104.7031">
			<stop  offset="0.3066" style="stop-color:#00AEC9"/>
			<stop  offset="0.9125" style="stop-color:#0393AA"/>
		</linearGradient>
		<path style="fill-rule:evenodd;clip-rule:evenodd;fill:url(#SVGID_00000129906366647960383370000001746171873963840411_);" d="
			M293.5,104.7v59.2h-17.8v-59.2c0-14.5-7.5-27.3-18.9-34.7l8.9-15.4c5.7,3.6,10.7,8.1,14.8,13.3l0,0c7-13.3,21-22.3,36.9-22.3h0
			c23,0,41.7,18.8,41.7,41.7v76.6h-17.8V87.2c0-13.2-10.8-24-24-24l0,0c-13.2,0-24,10.8-24,24v76.6h-17.8h17.8"/>
	</g>
</g>
<g id="Ebene_2">
</g>
<g id="Ebene_3">
</g>
<g id="Ebene_4">
</g>
<g id="Ebene_5">
</g>
<g id="Ebene_6">
</g>
</svg>
